<svg width="911" height="400" viewBox="0 0 911 400" class="keymap" xmlns="http://www.w3.org/2000/svg">
  <defs>
    <linearGradient id="keyGradient" x1="0%" y1="0%" x2="0%" y2="100%">
      <stop offset="0%" style="stop-color:#ffffff;stop-opacity:1" />
      <stop offset="100%" style="stop-color:#f0f2f5;stop-opacity:1" />
    </linearGradient>
    <linearGradient id="keyGradientCombo" x1="0%" y1="0%" x2="0%" y2="100%">
      <stop offset="0%" style="stop-color:#e3f2ff;stop-opacity:1" />
      <stop offset="100%" style="stop-color:#cfe7ff;stop-opacity:1" />
    </linearGradient>
    <linearGradient id="keyGradientHeld" x1="0%" y1="0%" x2="0%" y2="100%">
      <stop offset="0%" style="stop-color:#ffe5e5;stop-opacity:1" />
      <stop offset="100%" style="stop-color:#ffd0d0;stop-opacity:1" />
    </linearGradient>
  </defs>
  <style>
    svg.keymap {
      font-family: 'Lilex Nerd Font', 'LilexNerdFont', SFMono-Regular, Consolas, Liberation Mono, Menlo, monospace;
      font-size: 14px;
      font-kerning: normal;
      text-rendering: optimizeLegibility;
      fill: #1f2937;
    }

    rect.key {
      fill: url(#keyGradient);
      filter: drop-shadow(0 3px 6px rgba(0, 0, 0, 0.15));
      stroke: #c5cbd3;
      stroke-width: 2;
    }

    rect.held {
      fill: url(#keyGradientHeld);
    }

    rect.combo {
      fill: url(#keyGradientCombo);
      stroke: #8bb5e8;
      stroke-width: 2;
    }

    text {
      text-anchor: middle;
      dominant-baseline: middle;
    }

    text.tap {
      font-size: 14px;
      font-weight: 700;
    }

    text.hold {
      font-size: 11px;
      font-weight: 700;
      opacity: 0.95;
      text-anchor: middle;
      dominant-baseline: auto;
      transform: translateY(18px);
    }

    text.hold.small {
      font-size: 9px;
    }

    text.trans {
      fill: #9ca3af;
    }

    text.label {
      font-weight: bold;
      text-anchor: start;
      stroke: white;
      stroke-width: 4;
      paint-order: stroke;
    }

    text.combo {
      font-size: 11px;
      font-weight: 700;
    }

    path.combo {
      stroke-width: 1;
      stroke: #9ca3af;
      fill: none;
    }
  </style>
  <g transform="translate(30, 56)">

    <text x="5" y="-20" class="label" font-size="16">Combos</text>
    <g transform="translate(99, 135) rotate(-22.0)" class="key keypos-0">
      <rect rx="6" ry="6" x="-28" y="-26" width="55" height="52" class="key" />
      <text x="0" y="0" class="key tap">B</text>
    </g>
    <g transform="translate(168, 77) rotate(-12.0)" class="key keypos-1">
      <rect rx="6" ry="6" x="-28" y="-26" width="55" height="52" class="key" />
      <text x="0" y="0" class="key tap">L</text>
    </g>
    <g transform="translate(242, 42) rotate(-4.0)" class="key keypos-2">
      <rect rx="6" ry="6" x="-28" y="-26" width="55" height="52" class="key" />
      <text x="0" y="0" class="key tap">D</text>
    </g>
    <g transform="translate(312, 66)" class="key keypos-3">
      <rect rx="6" ry="6" x="-28" y="-26" width="55" height="52" class="key" />
      <text x="0" y="0" class="key tap">C</text>
    </g>
    <g transform="translate(372, 81)" class="key keypos-4">
      <rect rx="6" ry="6" x="-28" y="-26" width="55" height="52" class="key" />
      <text x="0" y="0" class="key tap">V</text>
    </g>
    <g transform="translate(509, 81)" class="key keypos-5">
      <rect rx="6" ry="6" x="-28" y="-26" width="55" height="52" class="key" />
      <text x="0" y="0" class="key tap">J</text>
    </g>
    <g transform="translate(569, 66)" class="key keypos-6">
      <rect rx="6" ry="6" x="-28" y="-26" width="55" height="52" class="key" />
      <text x="0" y="0" class="key tap">Y</text>
    </g>
    <g transform="translate(639, 42) rotate(4.0)" class="key keypos-7">
      <rect rx="6" ry="6" x="-28" y="-26" width="55" height="52" class="key" />
      <text x="0" y="0" class="key tap">O</text>
    </g>
    <g transform="translate(714, 77) rotate(12.0)" class="key keypos-8">
      <rect rx="6" ry="6" x="-28" y="-26" width="55" height="52" class="key" />
      <text x="0" y="0" class="key tap">U</text>
    </g>
    <g transform="translate(782, 135) rotate(22.0)" class="key keypos-9">
      <rect rx="6" ry="6" x="-28" y="-26" width="55" height="52" class="key" />
      <text x="0" y="0" class="key tap">,</text>
    </g>
    <g transform="translate(120, 190) rotate(-22.0)" class="key keypos-10">
      <rect rx="6" ry="6" x="-28" y="-26" width="55" height="52" class="key" />
      <text x="0" y="-6" class="key tap">N</text>
      <text x="0" y="0" class="key hold small">Gui</text>
    </g>
    <g transform="translate(179, 136) rotate(-12.0)" class="key keypos-11">
      <rect rx="6" ry="6" x="-28" y="-26" width="55" height="52" class="key" />
      <text x="0" y="-6" class="key tap">R</text>
      <text x="0" y="0" class="key hold small">Alt</text>
    </g>
    <g transform="translate(246, 102) rotate(-4.0)" class="key keypos-12">
      <rect rx="6" ry="6" x="-28" y="-26" width="55" height="52" class="key" />
      <text x="0" y="-6" class="key tap">T</text>
      <text x="0" y="0" class="key hold small">Ctrl</text>
    </g>
    <g transform="translate(312, 126)" class="key keypos-13">
      <rect rx="6" ry="6" x="-28" y="-26" width="55" height="52" class="key" />
      <text x="0" y="-6" class="key tap">S</text>
      <text x="0" y="0" class="key hold small">Shf</text>
    </g>
    <g transform="translate(372, 141)" class="key keypos-14">
      <rect rx="6" ry="6" x="-28" y="-26" width="55" height="52" class="key" />
      <text x="0" y="0" class="key tap">G</text>
    </g>
    <g transform="translate(509, 141)" class="key keypos-15">
      <rect rx="6" ry="6" x="-28" y="-26" width="55" height="52" class="key" />
      <text x="0" y="0" class="key tap">P</text>
    </g>
    <g transform="translate(569, 126)" class="key keypos-16">
      <rect rx="6" ry="6" x="-28" y="-26" width="55" height="52" class="key" />
      <text x="0" y="-6" class="key tap">H</text>
      <text x="0" y="0" class="key hold small">Shf</text>
    </g>
    <g transform="translate(635, 102) rotate(4.0)" class="key keypos-17">
      <rect rx="6" ry="6" x="-28" y="-26" width="55" height="52" class="key" />
      <text x="0" y="-6" class="key tap">A</text>
      <text x="0" y="0" class="key hold small">Ctrl</text>
    </g>
    <g transform="translate(702, 136) rotate(12.0)" class="key keypos-18">
      <rect rx="6" ry="6" x="-28" y="-26" width="55" height="52" class="key" />
      <text x="0" y="-6" class="key tap">E</text>
      <text x="0" y="0" class="key hold small">Alt</text>
    </g>
    <g transform="translate(761, 190) rotate(22.0)" class="key keypos-19">
      <rect rx="6" ry="6" x="-28" y="-26" width="55" height="52" class="key" />
      <text x="0" y="-6" class="key tap">I</text>
      <text x="0" y="0" class="key hold small">Gui</text>
    </g>
    <g transform="translate(141, 246) rotate(-22.0)" class="key keypos-20">
      <rect rx="6" ry="6" x="-28" y="-26" width="55" height="52" class="key" />
      <text x="0" y="0" class="key tap">X</text>
    </g>
    <g transform="translate(191, 194) rotate(-12.0)" class="key keypos-21">
      <rect rx="6" ry="6" x="-28" y="-26" width="55" height="52" class="key" />
      <text x="0" y="0" class="key tap">Q</text>
    </g>
    <g transform="translate(250, 162) rotate(-4.0)" class="key keypos-22">
      <rect rx="6" ry="6" x="-28" y="-26" width="55" height="52" class="key" />
      <text x="0" y="0" class="key tap">M</text>
    </g>
    <g transform="translate(312, 186)" class="key keypos-23">
      <rect rx="6" ry="6" x="-28" y="-26" width="55" height="52" class="key" />
      <text x="0" y="-6" class="key tap">W</text>
      <text x="0" y="0" class="key hold small">Hyper</text>
    </g>
    <g transform="translate(372, 201)" class="key keypos-24">
      <rect rx="6" ry="6" x="-28" y="-26" width="55" height="52" class="key" />
      <text x="0" y="0" class="key tap">Z</text>
    </g>
    <g transform="translate(509, 201)" class="key keypos-25">
      <rect rx="6" ry="6" x="-28" y="-26" width="55" height="52" class="key" />
      <text x="0" y="0" class="key tap">K</text>
    </g>
    <g transform="translate(569, 186)" class="key keypos-26">
      <rect rx="6" ry="6" x="-28" y="-26" width="55" height="52" class="key" />
      <text x="0" y="-6" class="key tap">F</text>
      <text x="0" y="0" class="key hold small">Hyper</text>
    </g>
    <g transform="translate(631, 162) rotate(4.0)" class="key keypos-27">
      <rect rx="6" ry="6" x="-28" y="-26" width="55" height="52" class="key" />
      <text x="0" y="0" class="key tap">&#x27;</text>
    </g>
    <g transform="translate(690, 194) rotate(12.0)" class="key keypos-28">
      <rect rx="6" ry="6" x="-28" y="-26" width="55" height="52" class="key" />
      <text x="0" y="0" class="key tap">;</text>
    </g>
    <g transform="translate(740, 246) rotate(22.0)" class="key keypos-29">
      <rect rx="6" ry="6" x="-28" y="-26" width="55" height="52" class="key" />
      <text x="0" y="0" class="key tap">PERIOD</text>
    </g>
    <g transform="translate(304, 261)" class="key keypos-30">
      <rect rx="6" ry="6" x="-28" y="-26" width="55" height="52" class="key" />
      <text x="0" y="-6" class="key tap">Esc</text>
      <text x="0" y="0" class="key hold small">Util</text>
    </g>
    <g transform="translate(371, 262) rotate(2.0)" class="key keypos-31">
      <rect rx="6" ry="6" x="-28" y="-26" width="55" height="52" class="key" />
      <text x="0" y="-6" class="key tap">Spc</text>
      <text x="0" y="0" class="key hold small">Nav</text>
    </g>
    <g transform="translate(510, 262) rotate(-2.0)" class="key keypos-32">
      <rect rx="6" ry="6" x="-28" y="-26" width="55" height="52" class="key" />
      <text x="0" y="-6" class="key tap">Ent</text>
      <text x="0" y="0" class="key hold small">Num</text>
    </g>
    <g transform="translate(577, 261)" class="key keypos-33">
      <rect rx="6" ry="6" x="-28" y="-26" width="55" height="52" class="key" />
      <text x="0" y="-6" class="key tap">Bksp</text>
      <text x="0" y="0" class="key hold small">Fun</text>
    </g>
    <!-- combo connection lines -->
    <path d="M 99,135 Q 97.4,151.4 109.5,162.5" class="combo" />
    <path d="M 120,190 Q 107.9,178.9 109.5,162.5" class="combo" />
    <path d="M 168,77 Q 163.4,93.1 173.5,106.5" class="combo" />
    <path d="M 179,136 Q 168.9,122.6 173.5,106.5" class="combo" />
    <path d="M 242,42 Q 235.5,57.5 244.0,72.0" class="combo" />
    <path d="M 246,102 Q 237.5,87.5 244.0,72.0" class="combo" />
    <path d="M 312,66 Q 304.5,81.0 312.0,96.0" class="combo" />
    <path d="M 312,126 Q 304.5,111.0 312.0,96.0" class="combo" />
    <path d="M 372,81 Q 364.5,96.0 372.0,111.0" class="combo" />
    <path d="M 372,141 Q 364.5,126.0 372.0,111.0" class="combo" />
    <path d="M 509,81 Q 516.3,95.6 509.0,110.25" class="combo" />
    <path d="M 509,141 Q 516.7,125.6 509.0,110.25" class="combo" />
    <path d="M 569,66 Q 576.5,81.0 569.0,96.0" class="combo" />
    <path d="M 569,126 Q 576.5,111.0 569.0,96.0" class="combo" />
    <path d="M 639,42 Q 645.5,57.5 637.0,72.0" class="combo" />
    <path d="M 635,102 Q 643.5,87.5 637.0,72.0" class="combo" />
    <path d="M 714,77 Q 718.4,93.2 708.0,106.5" class="combo" />
    <path d="M 702,136 Q 712.4,122.8 708.0,106.5" class="combo" />
    <path d="M 782,135 Q 783.6,151.4 771.5,162.5" class="combo" />
    <path d="M 761,190 Q 773.1,178.9 771.5,162.5" class="combo" />
    <path d="M 120,190 Q 118.2,206.6 130.5,218.0" class="combo" />
    <path d="M 141,246 Q 128.8,234.6 130.5,218.0" class="combo" />
    <path d="M 179,136 Q 177.5,146.5 185.0,154.04166666668243" class="combo" />
    <path d="M 191,194 Q 178.0,175.5 185.0,154.04166666668243" class="combo" />
    <path d="M 246,102 Q 237.8,120.8 248.0,138.66666666666666" class="combo" />
    <path d="M 250,162 Q 243.2,150.8 248.0,138.66666666666666" class="combo" />
    <path d="M 312,126 Q 305.4,139.2 312.0,152.4375" class="combo" />
    <path d="M 312,186 Q 303.6,169.2 312.0,152.4375" class="combo" />
    <path d="M 372,141 Q 364.5,156.0 372.0,171.0" class="combo" />
    <path d="M 372,201 Q 364.5,186.0 372.0,171.0" class="combo" />
    <path d="M 509,141 Q 516.5,156.0 509.0,171.0" class="combo" />
    <path d="M 509,201 Q 516.5,186.0 509.0,171.0" class="combo" />
    <path d="M 569,126 Q 576.7,140.9 569.3333333333321,156.0" class="combo" />
    <path d="M 569,186 Q 576.7,171.1 569.3333333333321,156.0" class="combo" />
    <path d="M 635,102 Q 641.8,117.4 633.5,132.0" class="combo" />
    <path d="M 631,162 Q 639.8,147.6 633.5,132.0" class="combo" />
    <path d="M 702,136 Q 706.2,152.0 696.0,165.0" class="combo" />
    <path d="M 690,194 Q 700.2,181.0 696.0,165.0" class="combo" />
    <path d="M 761,190 Q 762.8,206.6 750.5,218.0" class="combo" />
    <path d="M 740,246 Q 752.2,234.6 750.5,218.0" class="combo" />
    <path d="M 569,66 Q 583.5,51.2 604.0,54.0" class="combo" />
    <path d="M 639,42 Q 618.5,39.2 604.0,54.0" class="combo" />
    <path d="M 639,42 Q 662.1,41.4 676.5,59.5" class="combo" />
    <path d="M 714,77 Q 699.6,58.9 676.5,59.5" class="combo" />
    <path d="M 509,141 Q 521.5,130.5 537.3333333333358,134.25" class="combo" />
    <path d="M 569,126 Q 551.1,122.2 537.3333333333358,134.25" class="combo" />
    <path d="M 569,126 Q 588.2,128.1 601.5,114.0" class="combo" />
    <path d="M 635,102 Q 621.2,116.4 601.5,114.0" class="combo" />
    <path d="M 635,102 Q 656.0,102.1 668.5,119.0" class="combo" />
    <path d="M 702,136 Q 689.5,119.1 668.5,119.0" class="combo" />
    <path d="M 702,136 Q 723.5,142.1 731.5,163.0" class="combo" />
    <path d="M 761,190 Q 753.0,169.1 731.5,163.0" class="combo" />
    <path d="M 191,194 Q 201.6,178.7 220.15,178.04166666665878" class="combo" />
    <path d="M 250,162 Q 231.1,162.6 220.15,178.04166666665878" class="combo" />
    <path d="M 250,162 Q 262.1,177.1 281.35,176.4375" class="combo" />
    <path d="M 312,186 Q 294.3,188.9 281.35,176.4375" class="combo" />
    <path d="M 191,194 Q 219.4,211.9 251.5,202.04166666665878" class="combo" />
    <path d="M 312,186 Q 278.2,180.5 251.5,202.04166666665878" class="combo" />
    <path d="M 569,186 Q 588.2,188.1 601.3333333333321,174.0" class="combo" />
    <path d="M 631,162 Q 619.2,175.4 601.3333333333321,174.0" class="combo" />
    <path d="M 631,162 Q 649.8,162.6 660.5,178.0" class="combo" />
    <path d="M 690,194 Q 679.2,178.6 660.5,178.0" class="combo" />
    <path d="M 179,136 Q 208.1,112.0 245.66666666666666,114.66666666666666" class="combo" />
    <path d="M 246,102 L 245.66666666666666,114.66666666666666" class="combo" />
    <path d="M 312,126 Q 281.2,106.5 245.66666666666666,114.66666666666666" class="combo" />
    <path d="M 312,126 Q 376.2,112.0 440.5,126.0" class="combo" />
    <path d="M 569,126 Q 504.8,112.0 440.5,126.0" class="combo" />
    <path d="M 304,261 Q 372.2,275.0 440.5,261.0" class="combo" />
    <path d="M 577,261 Q 508.8,275.0 440.5,261.0" class="combo" />
    <path d="M 304,261 Q 320.6,269.6 337.5,261.5" class="combo" />
    <path d="M 371,262 Q 354.1,270.1 337.5,261.5" class="combo" />
    <path d="M 510,262 Q 526.9,270.1 543.5,261.5" class="combo" />
    <path d="M 577,261 Q 560.4,269.6 543.5,261.5" class="combo" />
    <!-- combo boxes -->
    <g transform="translate(109.5, 162.5)">
      <rect rx="4" ry="4" x="-21.4" y="-10.0" width="42.8" height="20" class="combo" />
      <text x="0" y="0" class="combo">Play</text>
    </g>
    <g transform="translate(173.5, 106.5)">
      <rect rx="4" ry="4" x="-14.0" y="-10.0" width="28" height="20" class="combo" />
      <text x="0" y="0" class="combo">@</text>
    </g>
    <g transform="translate(244.0, 72.0)">
      <rect rx="4" ry="4" x="-14.0" y="-10.0" width="28" height="20" class="combo" />
      <text x="0" y="0" class="combo">#</text>
    </g>
    <g transform="translate(312.0, 96.0)">
      <rect rx="4" ry="4" x="-14.0" y="-10.0" width="28" height="20" class="combo" />
      <text x="0" y="0" class="combo">$</text>
    </g>
    <g transform="translate(372.0, 111.0)">
      <rect rx="4" ry="4" x="-14.0" y="-10.0" width="28" height="20" class="combo" />
      <text x="0" y="0" class="combo">%</text>
    </g>
    <g transform="translate(509.0, 110.25)">
      <rect rx="4" ry="4" x="-14.0" y="-10.0" width="28" height="20" class="combo" />
      <text x="0" y="0" class="combo">^</text>
    </g>
    <g transform="translate(569.0, 96.0)">
      <rect rx="4" ry="4" x="-14.0" y="-10.0" width="28" height="20" class="combo" />
      <text x="0" y="0" class="combo">+</text>
    </g>
    <g transform="translate(637.0, 72.0)">
      <rect rx="4" ry="4" x="-14.0" y="-10.0" width="28" height="20" class="combo" />
      <text x="0" y="0" class="combo">*</text>
    </g>
    <g transform="translate(708.0, 106.5)">
      <rect rx="4" ry="4" x="-14.0" y="-10.0" width="28" height="20" class="combo" />
      <text x="0" y="0" class="combo">&amp;</text>
    </g>
    <g transform="translate(771.5, 162.5)">
      <rect rx="4" ry="4" x="-21.4" y="-10.0" width="42.8" height="20" class="combo" />
      <text x="0" y="0" class="combo">Vol+</text>
    </g>
    <g transform="translate(130.5, 218.0)">
      <rect rx="4" ry="4" x="-21.4" y="-10.0" width="42.8" height="20" class="combo" />
      <text x="0" y="0" class="combo">Mute</text>
    </g>
    <g transform="translate(185.0, 154.04166666668243)">
      <rect rx="4" ry="4" x="-14.0" y="-10.0" width="28" height="20" class="combo" />
      <text x="0" y="0" class="combo">`</text>
    </g>
    <g transform="translate(248.0, 138.66666666666666)">
      <rect rx="4" ry="4" x="-14.0" y="-10.0" width="28" height="20" class="combo" />
      <text x="0" y="0" class="combo">\</text>
    </g>
    <g transform="translate(312.0, 152.4375)">
      <rect rx="4" ry="4" x="-14.0" y="-10.0" width="28" height="20" class="combo" />
      <text x="0" y="0" class="combo">=</text>
    </g>
    <g transform="translate(372.0, 171.0)">
      <rect rx="4" ry="4" x="-14.0" y="-10.0" width="28" height="20" class="combo" />
      <text x="0" y="0" class="combo">~</text>
    </g>
    <g transform="translate(509.0, 171.0)">
      <rect rx="4" ry="4" x="-14.0" y="-10.0" width="28" height="20" class="combo" />
      <text x="0" y="0" class="combo">_</text>
    </g>
    <g transform="translate(569.3333333333321, 156.0)">
      <rect rx="4" ry="4" x="-14.0" y="-10.0" width="28" height="20" class="combo" />
      <text x="0" y="0" class="combo">-</text>
    </g>
    <g transform="translate(633.5, 132.0)">
      <rect rx="4" ry="4" x="-14.0" y="-10.0" width="28" height="20" class="combo" />
      <text x="0" y="0" class="combo">/</text>
    </g>
    <g transform="translate(696.0, 165.0)">
      <rect rx="4" ry="4" x="-14.0" y="-10.0" width="28" height="20" class="combo" />
      <text x="0" y="0" class="combo">|</text>
    </g>
    <g transform="translate(750.5, 218.0)">
      <rect rx="4" ry="4" x="-21.4" y="-10.0" width="42.8" height="20" class="combo" />
      <text x="0" y="0" class="combo">Vol−</text>
    </g>
    <g transform="translate(604.0, 54.0)">
      <rect rx="4" ry="4" x="-14.0" y="-10.0" width="28" height="20" class="combo" />
      <text x="0" y="0" class="combo">[</text>
    </g>
    <g transform="translate(676.5, 59.5)">
      <rect rx="4" ry="4" x="-14.0" y="-10.0" width="28" height="20" class="combo" />
      <text x="0" y="0" class="combo">]</text>
    </g>
    <g transform="translate(537.3333333333358, 134.25)">
      <rect rx="4" ry="4" x="-14.0" y="-10.0" width="28" height="20" class="combo" />
      <text x="0" y="0" class="combo">&lt;</text>
    </g>
    <g transform="translate(601.5, 114.0)">
      <rect rx="4" ry="4" x="-14.0" y="-10.0" width="28" height="20" class="combo" />
      <text x="0" y="0" class="combo">(</text>
    </g>
    <g transform="translate(668.5, 119.0)">
      <rect rx="4" ry="4" x="-14.0" y="-10.0" width="28" height="20" class="combo" />
      <text x="0" y="0" class="combo">)</text>
    </g>
    <g transform="translate(731.5, 163.0)">
      <rect rx="4" ry="4" x="-14.0" y="-10.0" width="28" height="20" class="combo" />
      <text x="0" y="0" class="combo">&gt;</text>
    </g>
    <g transform="translate(220.15, 178.04166666665878)">
      <rect rx="4" ry="4" x="-28.6" y="-10.0" width="57.2" height="20" class="combo" />
      <text x="0" y="0" class="combo">Ctrl+C</text>
    </g>
    <g transform="translate(281.35, 176.4375)">
      <rect rx="4" ry="4" x="-28.6" y="-10.0" width="57.2" height="20" class="combo" />
      <text x="0" y="0" class="combo">Ctrl+V</text>
    </g>
    <g transform="translate(251.5, 202.04166666665878)">
      <rect rx="4" ry="4" x="-28.6" y="-10.0" width="57.2" height="20" class="combo" />
      <text x="0" y="0" class="combo">Ctrl+X</text>
    </g>
    <g transform="translate(601.3333333333321, 174.0)">
      <rect rx="4" ry="4" x="-14.0" y="-10.0" width="28" height="20" class="combo" />
      <text x="0" y="0" class="combo">{</text>
    </g>
    <g transform="translate(660.5, 178.0)">
      <rect rx="4" ry="4" x="-14.0" y="-10.0" width="28" height="20" class="combo" />
      <text x="0" y="0" class="combo">}</text>
    </g>
    <g transform="translate(245.66666666666666, 114.66666666666666)">
      <rect rx="4" ry="4" x="-17.8" y="-10.0" width="35.6" height="20" class="combo" />
      <text x="0" y="0" class="combo">Tab</text>
    </g>
    <g transform="translate(440.5, 126.0)">
      <rect rx="4" ry="4" x="-28.6" y="-10.0" width="57.2" height="20" class="combo" />
      <text x="0" y="0" class="combo">CapsWd</text>
    </g>
    <g transform="translate(440.5, 261.0)">
      <rect rx="4" ry="4" x="-28.6" y="-10.0" width="57.2" height="20" class="combo" />
      <text x="0" y="0" class="combo">Studio</text>
    </g>
    <g transform="translate(337.5, 261.5)">
      <rect rx="4" ry="4" x="-17.8" y="-10.0" width="35.6" height="20" class="combo" />
      <text x="0" y="0" class="combo">Off</text>
    </g>
    <g transform="translate(543.5, 261.5)">
      <rect rx="4" ry="4" x="-17.8" y="-10.0" width="35.6" height="20" class="combo" />
      <text x="0" y="0" class="combo">Off</text>
    </g>
  </g>
</svg>